<svg xmlns="http://www.w3.org/2000/svg" viewBox="0 0 500 500"><path fill="#fbfbfb" stroke="#fbfbfb" d="M140.842 190.375c-8.934 3.674-14.852 7.508-21.671 14.035l-6.328 6.058 2.677 2.303 2.677 2.302 4.406-4.061c28.592-26.355 66.88-16.167 64.095 17.055-1.754 20.917-28.745 51.723-65.948 75.269-5.613 3.552-5.75 3.747-5.75 8.152V316h88.962l.612-2.75a128.65 128.65 0 0 1 1.082-4.487c.44-1.624-1.917-1.755-35.843-2L133.5 306.5l9.894-6.899c52.917-36.9 71.573-73.875 49.475-98.053-11.234-12.292-36.247-17.664-52.027-11.173m62.556 11.875c2.312 7.287 11.155 35.429 19.652 62.536l15.45 49.286 6.849-.286 6.85-.286 16.193-51.209c8.906-28.165 16.482-51.498 16.835-51.851.353-.353 2.243 4.466 4.201 10.709 1.958 6.243 9.33 29.576 16.383 51.851l12.823 40.5h13.804l18.739-59.5c23.03-73.122 21.172-65.192 15.18-64.809l-4.828.309-8.515 27.026a42152.417 42152.417 0 0 0-16.429 52.285c-4.353 13.893-8.247 24.906-8.655 24.474-.407-.432-7.556-22.61-15.887-49.285a80887.61 80887.61 0 0 0-16.173-51.75c-1.023-3.243-1.039-3.25-7.76-3.25h-6.734l-16.438 52.496c-9.041 28.873-16.683 52.498-16.982 52.5-.3.002-7.934-23.621-16.966-52.496L214.57 189h-15.374l4.202 13.25M375 251.5V314h22.042c26.33 0 33.341-1.135 46.639-7.549 50.006-24.12 45.419-94.654-7.346-112.964-10.479-3.637-18.041-4.471-40.585-4.479L375 189v62.5m-349 2V316h85l.014-2.25c.007-1.238.285-3.262.616-4.5l.603-2.25H41V191H26v62.5m364-2V305l13.25-.017c22.388-.03 33.814-3.937 45.25-15.475 19.885-20.062 19.618-56.902-.555-76.641-10.921-10.686-23.502-14.82-45.195-14.85L390 198v53.5" fill-rule="evenodd"/><path fill="#6a4421" stroke="#6a4421" d="M145.698 189.029c-9.053 2.289-23.305 11.15-29.198 18.154l-2.597 3.085 2.216 2.359 2.216 2.358 5.78-5.513c32.801-31.287 77.582-5.693 58.663 33.528-8.728 18.093-35.647 44.45-62.028 60.735-5.577 3.443-5.75 3.68-5.75 7.907V316h88.75l.625-3.125c.344-1.719.625-3.738.625-4.488 0-1.12-6.426-1.409-36.108-1.625l-36.109-.262 7.33-5c58.961-40.223 78.08-82.827 46.977-104.684-9.986-7.017-29.739-10.733-41.392-7.787m54.314.677c.006.437 8.714 28.469 19.35 62.294l19.338 61.5 6.465.291 6.464.292 16.34-51.792c8.988-28.485 16.671-52.168 17.075-52.629.839-.961 1.555 1.164 17.956 53.338 6.657 21.175 13.017 41.313 14.133 44.75l2.03 6.25H331.914l4.98-15.75C351.769 251.207 371 189.867 371 189.464c0-.255-2.008-.464-4.463-.464h-4.463l-5.468 17.25c-5.545 17.498-26.269 83.707-27.263 87.101-1.002 3.421-2.109.313-17.771-49.851-19.248-61.651-16.183-54.662-23.804-54.298l-6.232.298-16.04 51c-18.091 57.52-16.983 54.222-17.93 53.346-.389-.36-8.018-23.985-16.953-52.5L214.368 189.5l-7.184-.294c-3.951-.161-7.179.064-7.172.5m175.738-.153c-.413.429-.75 28.605-.75 62.614V314h19.428c28.954 0 40.313-2.222 54.82-10.725 35.55-20.835 38.985-74.386 6.345-98.922-15.74-11.831-25.217-14.377-56.093-15.067-12.65-.283-23.337-.163-23.75.267M27 253.5V316h82.962l.612-2.75a126.27 126.27 0 0 1 1.086-4.5c.446-1.643-1.729-1.75-35.593-1.75H40V191H27v62.5m362-2V305h15.272c17.083 0 24.779-1.502 33.351-6.51 34.918-20.402 34.654-75.383-.452-93.831-10.395-5.462-16.394-6.659-33.381-6.659H389v53.5" fill-rule="evenodd"/><path fill="#2b1306" stroke="#2b1306" d="M200.998 192.707c.852 2.573 31.703 100.786 36.138 115.043l1.944 6.25 6.21-.002 6.21-.003 16.5-52.247c9.075-28.737 16.95-52.138 17.5-52.003.55.135 8.392 23.647 17.428 52.25L319.355 314h12.503l1.554-5.25c.854-2.887 9.597-30.81 19.427-62.049l17.873-56.799-4.5.299-4.499.299-16.261 51.968c-8.943 28.582-16.664 52.103-17.157 52.267-.493.164-8.282-23.334-17.309-52.218L294.573 190l-6.536.017-6.537.017-16 51.516c-16.21 52.19-16.937 54.347-17.972 53.312-.319-.32-7.899-23.932-16.843-52.471L214.422 190.5l-7.174-.293-7.174-.293.924 2.793M376 252.142v62.141l23.25-.582c16.2-.405 25.221-1.067 29.75-2.183 48.35-11.91 65.575-68.651 31.12-102.518-15.41-15.147-27.836-19-61.28-19H376v62.142M27 254v62h82.767l.603-2.25c1.638-6.112 4.025-5.699-34.62-5.987L40.5 307.5l-.258-57.75-.258-57.75H27v62m362.241-2.25.259 53.75 15.104-.137c21.894-.198 33.581-4.22 44.379-15.275 24.269-24.843 17.957-70.049-12.011-86.022-9.136-4.87-15.583-6.066-32.691-6.066h-15.298l.258 53.75" fill-rule="evenodd"/></svg>